<svg width="60" height="60" viewBox="0 0 60 60" fill="none" xmlns="http://www.w3.org/2000/svg">
<path d="M15.4205 1.37695C16.6428 1.37695 17.7371 1.95295 18.5147 2.88535C18.8711 3.31191 19.1627 3.81775 19.366 4.374H36.009C36.2123 3.81775 36.5039 3.31385 36.8604 2.88535C37.6399 1.9547 38.7342 1.37695 39.9545 1.37695C41.1768 1.37695 42.2694 1.95295 43.0487 2.88535C43.4051 3.31367 43.6967 3.81775 43.9 4.374H48.0922C49.2893 4.374 50.3782 4.86365 51.1649 5.65015C51.9514 6.43665 52.441 7.52575 52.441 8.7228V35.2963C52.6967 35.5158 52.9432 35.7445 53.1809 35.9821C55.5803 38.3815 57.0653 41.6991 57.0653 45.3601C57.0653 49.0177 55.5803 52.3331 53.1809 54.7326C50.776 57.1355 47.4604 58.6224 43.8029 58.6224C40.1415 58.6224 36.8244 57.1375 34.4249 54.738L34.3583 54.6642C32.2612 52.5384 30.8788 49.7052 30.5944 46.5587H4.12492C3.46242 46.5587 2.92432 46.0223 2.92432 45.3581V8.72257C2.92432 7.52552 3.41397 6.43662 4.20047 5.64992C4.98697 4.86342 6.07607 4.37377 7.27312 4.37377H11.4653C11.6686 3.81752 11.9602 3.31362 12.3167 2.88707C13.0962 1.95467 14.1905 1.37867 15.4108 1.37867L15.4205 1.37695ZM42.608 39.3465C42.608 38.684 43.1444 38.1459 43.8086 38.1459C44.4711 38.1459 45.0092 38.6822 45.0092 39.3465V44.1598H46.9766C47.6391 44.1598 48.1772 44.6961 48.1772 45.3604C48.1772 46.0229 47.6409 46.561 46.9766 46.561H43.8104C43.1479 46.561 42.6098 46.0246 42.6098 45.3604V39.3484L42.608 39.3465ZM43.8086 34.4973C40.8098 34.4973 38.0916 35.7141 36.1281 37.6779C34.1625 39.6418 32.9475 42.358 32.9475 45.3584C32.9475 48.3303 34.1373 51.0214 36.0668 52.9814L36.128 53.039C38.0936 55.0046 40.8098 56.2197 43.8085 56.2197C46.8091 56.2197 49.5275 55.0046 51.4925 53.0408C53.4563 51.0752 54.6714 48.3589 54.6714 45.3568C54.6714 42.3579 53.4546 39.6398 51.4907 37.6763C49.462 35.6476 46.7153 34.4939 43.8102 34.4939L43.8086 34.4973ZM50.0476 33.6549V15.4979H5.33162V44.1594H30.6006C30.8868 40.9787 32.2981 38.1204 34.4311 35.9854C36.8305 33.5805 40.1481 32.0955 43.8091 32.0955C46.0645 32.0955 48.1886 32.659 50.0481 33.6526L50.0476 33.6549ZM9.75962 21.5104C9.09712 21.5104 8.55902 20.974 8.55902 20.3098C8.55902 19.6473 9.09537 19.1092 9.75962 19.1092H13.1239C13.7864 19.1092 14.3245 19.6455 14.3245 20.3098C14.3245 20.9723 13.7881 21.5104 13.1239 21.5104H9.75962ZM9.75962 40.5474C9.09712 40.5474 8.55902 40.011 8.55902 39.3468C8.55902 38.6843 9.09537 38.1462 9.75962 38.1462H13.1239C13.7864 38.1462 14.3245 38.6825 14.3245 39.3468C14.3245 40.0093 13.7881 40.5474 13.1239 40.5474H9.75962ZM26.0066 40.5474C25.3441 40.5474 24.806 40.011 24.806 39.3468C24.806 38.6843 25.3424 38.1462 26.0066 38.1462H29.3709C30.0334 38.1462 30.5715 38.6825 30.5715 39.3468C30.5715 40.0093 30.0351 40.5474 29.3709 40.5474H26.0066ZM17.8831 40.5474C17.2206 40.5474 16.6825 40.011 16.6825 39.3468C16.6825 38.6843 17.2189 38.1462 17.8831 38.1462H21.2474C21.9099 38.1462 22.448 38.6825 22.448 39.3468C22.448 40.0093 21.9116 40.5474 21.2474 40.5474H17.8831ZM9.75962 35.7882C9.09712 35.7882 8.55902 35.2518 8.55902 34.5876C8.55902 33.9251 9.09537 33.387 9.75962 33.387H13.1239C13.7864 33.387 14.3245 33.9233 14.3245 34.5876C14.3245 35.2501 13.7881 35.7882 13.1239 35.7882H9.75962ZM26.0066 35.7882C25.3441 35.7882 24.806 35.2518 24.806 34.5876C24.806 33.9251 25.3424 33.387 26.0066 33.387H29.3709C30.0334 33.387 30.5715 33.9233 30.5715 34.5876C30.5715 35.2501 30.0351 35.7882 29.3709 35.7882H26.0066ZM17.8831 35.7882C17.2206 35.7882 16.6825 35.2518 16.6825 34.5876C16.6825 33.9251 17.2189 33.387 17.8831 33.387H21.2474C21.9099 33.387 22.448 33.9233 22.448 34.5876C22.448 35.2501 21.9116 35.7882 21.2474 35.7882H17.8831ZM9.75962 31.029C9.09712 31.029 8.55902 30.4926 8.55902 29.8284C8.55902 29.1659 9.09537 28.6278 9.75962 28.6278H13.1239C13.7864 28.6278 14.3245 29.1641 14.3245 29.8284C14.3245 30.4909 13.7881 31.029 13.1239 31.029H9.75962ZM42.2551 31.029C41.5926 31.029 41.0545 30.4926 41.0545 29.8284C41.0545 29.1659 41.5909 28.6278 42.2551 28.6278H45.6194C46.2819 28.6278 46.82 29.1641 46.82 29.8284C46.82 30.4909 46.2836 31.029 45.6194 31.029H42.2551ZM34.1316 31.029C33.4691 31.029 32.931 30.4926 32.931 29.8284C32.931 29.1659 33.4674 28.6278 34.1316 28.6278H37.4959C38.1584 28.6278 38.6965 29.1641 38.6965 29.8284C38.6965 30.4909 38.1601 31.029 37.4959 31.029H34.1316ZM26.0081 31.029C25.3456 31.029 24.8075 30.4926 24.8075 29.8284C24.8075 29.1659 25.3439 28.6278 26.0081 28.6278H29.3724C30.0349 28.6278 30.573 29.1641 30.573 29.8284C30.573 30.4909 30.0366 31.029 29.3724 31.029H26.0081ZM17.8846 31.029C17.2221 31.029 16.684 30.4926 16.684 29.8284C16.684 29.1659 17.2204 28.6278 17.8846 28.6278H21.2489C21.9114 28.6278 22.4495 29.1641 22.4495 29.8284C22.4495 30.4909 21.9131 31.029 21.2489 31.029H17.8846ZM9.76112 26.2698C9.09862 26.2698 8.56052 25.7334 8.56052 25.0692C8.56052 24.4067 9.09687 23.8686 9.76112 23.8686H13.1254C13.7879 23.8686 14.326 24.4049 14.326 25.0692C14.326 25.7317 13.7896 26.2698 13.1254 26.2698H9.76112ZM42.2566 26.2698C41.5941 26.2698 41.056 25.7334 41.056 25.0692C41.056 24.4067 41.5924 23.8686 42.2566 23.8686H45.6209C46.2834 23.8686 46.8215 24.4049 46.8215 25.0692C46.8215 25.7317 46.2851 26.2698 45.6209 26.2698H42.2566ZM34.1331 26.2698C33.4706 26.2698 32.9325 25.7334 32.9325 25.0692C32.9325 24.4067 33.4689 23.8686 34.1331 23.8686H37.4974C38.1599 23.8686 38.698 24.4049 38.698 25.0692C38.698 25.7317 38.1616 26.2698 37.4974 26.2698H34.1331ZM26.0096 26.2698C25.3471 26.2698 24.809 25.7334 24.809 25.0692C24.809 24.4067 25.3454 23.8686 26.0096 23.8686H29.3739C30.0364 23.8686 30.5745 24.4049 30.5745 25.0692C30.5745 25.7317 30.0381 26.2698 29.3739 26.2698H26.0096ZM17.8861 26.2698C17.2236 26.2698 16.6855 25.7334 16.6855 25.0692C16.6855 24.4067 17.2219 23.8686 17.8861 23.8686H21.2504C21.9129 23.8686 22.451 24.4049 22.451 25.0692C22.451 25.7317 21.9146 26.2698 21.2504 26.2698H17.8861ZM42.2586 21.5106C41.5961 21.5106 41.058 20.9742 41.058 20.31C41.058 19.6475 41.5944 19.1094 42.2586 19.1094H45.6229C46.2854 19.1094 46.8235 19.6457 46.8235 20.31C46.8235 20.9725 46.2871 21.5106 45.6229 21.5106H42.2586ZM34.1351 21.5106C33.4726 21.5106 32.9345 20.9742 32.9345 20.31C32.9345 19.6475 33.4709 19.1094 34.1351 19.1094H37.4994C38.1619 19.1094 38.7 19.6457 38.7 20.31C38.7 20.9725 38.1636 21.5106 37.4994 21.5106H34.1351ZM26.0116 21.5106C25.3491 21.5106 24.811 20.9742 24.811 20.31C24.811 19.6475 25.3474 19.1094 26.0116 19.1094H29.3759C30.0384 19.1094 30.5765 19.6457 30.5765 20.31C30.5765 20.9725 30.0401 21.5106 29.3759 21.5106H26.0116ZM17.8881 21.5106C17.2256 21.5106 16.6875 20.9742 16.6875 20.31C16.6875 19.6475 17.2239 19.1094 17.8881 19.1094H21.2524C21.9149 19.1094 22.453 19.6457 22.453 20.31C22.453 20.9725 21.9166 21.5106 21.2524 21.5106H17.8881ZM19.6791 6.77405C19.5766 7.8756 19.1518 8.8711 18.5199 9.62715C17.7404 10.5596 16.6461 11.1356 15.4258 11.1356C14.2053 11.1356 13.1109 10.5596 12.3316 9.62715C11.6998 8.8711 11.275 7.87405 11.1724 6.77405H7.28607C6.75152 6.77405 6.26187 6.99358 5.90912 7.34825C5.55638 7.70099 5.33492 8.19065 5.33492 8.7252V13.0992H50.0509V8.7252C50.0509 8.19065 49.8314 7.701 49.4767 7.34825C49.124 6.99552 48.6343 6.77405 48.0998 6.77405H44.2134C44.1109 7.87385 43.6878 8.8711 43.056 9.62715C42.2765 10.5596 41.1822 11.1356 39.9619 11.1356C38.7414 11.1356 37.647 10.5596 36.8677 9.62715C36.2359 8.8711 35.8111 7.8758 35.7085 6.77405H19.6775H19.6791ZM41.2201 4.42325C40.8871 4.0254 40.4406 3.77695 39.9637 3.77695C39.4867 3.77695 39.0402 4.02539 38.7055 4.42325C38.4193 4.767 38.2123 5.217 38.1295 5.72635L38.1259 5.75702V5.76053L38.1224 5.78749L38.1207 5.79295L38.1172 5.81639C38.0992 5.96034 38.0884 6.10624 38.0884 6.25741C38.0884 6.98456 38.3261 7.63261 38.7076 8.08981C39.0406 8.48942 39.4871 8.73611 39.9658 8.73611C40.4428 8.73611 40.8893 8.48767 41.2223 8.08981C41.6039 7.63258 41.8414 6.98456 41.8414 6.25741C41.8414 6.09725 41.8307 5.94237 41.8072 5.79295V5.78748L41.8037 5.76053V5.75701C41.7227 5.23496 41.5139 4.77421 41.2223 4.42321L41.2201 4.42325ZM16.6841 4.42325C16.3511 4.02364 15.9046 3.77695 15.4277 3.77695C14.9507 3.77695 14.5042 4.02539 14.1695 4.42325C13.8833 4.767 13.6781 5.217 13.5935 5.72635L13.59 5.75506V5.75858L13.5864 5.78553L13.5847 5.791L13.5812 5.81444C13.5614 5.95838 13.5525 6.10428 13.5525 6.25545C13.5525 6.9826 13.7901 7.63065 14.1716 8.08785C14.5046 8.48746 14.9511 8.73415 15.4298 8.73415C15.9068 8.73415 16.3533 8.48571 16.6863 8.08785C17.0697 7.63063 17.3054 6.9826 17.3054 6.25545C17.3054 6.0953 17.2947 5.94217 17.2712 5.791V5.78553L17.2677 5.75858V5.75506C17.1867 5.23121 16.9779 4.77051 16.6863 4.42126L16.6841 4.42325Z" fill="#374E76"/>
</svg>
