<svg width="65" height="65" viewBox="0 0 65 65" fill="none" xmlns="http://www.w3.org/2000/svg">
<path d="M18.9865 21.762C20.8036 21.7618 22.5463 21.0392 23.8302 19.7534C25.1141 18.4674 25.8339 16.7237 25.831 14.9066C25.828 13.0894 25.1027 11.3481 23.8147 10.0661C22.5268 8.78428 20.7818 8.06722 18.9647 8.07291C17.1476 8.07883 15.4073 8.80692 14.1276 10.097C12.8477 11.3868 12.1334 13.1328 12.142 14.95C12.1524 16.759 12.8777 18.4907 14.1602 19.7668C15.4424 21.0431 17.1774 21.7604 18.9865 21.7621L18.9865 21.762ZM18.9865 9.69781C20.3656 9.69781 21.6883 10.2456 22.6635 11.2208C23.6387 12.196 24.1865 13.5187 24.1865 14.8978C24.1865 16.2769 23.6387 17.5996 22.6635 18.5748C21.6883 19.55 20.3656 20.0978 18.9865 20.0978C17.6074 20.0978 16.2847 19.55 15.3095 18.5748C14.3343 17.5996 13.7865 16.2769 13.7865 14.8978C13.7865 13.5187 14.3343 12.196 15.3095 11.2208C16.2847 10.2456 17.6074 9.69781 18.9865 9.69781Z" fill="#374E76"/>
<path d="M10.7965 30.888L11.7 57.616C11.7068 57.827 11.7955 58.0271 11.947 58.1738C12.0987 58.3206 12.3016 58.4027 12.5125 58.4025H15.7625C15.9504 58.4034 16.1328 58.339 16.2786 58.2206C16.4242 58.1021 16.5245 57.9366 16.5621 57.7525L18.9996 45.4025L21.4306 57.7525C21.468 57.9366 21.5683 58.1021 21.7141 58.2206C21.8599 58.339 22.0423 58.4034 22.2299 58.4025H25.4799C25.6911 58.4027 25.8938 58.3206 26.0455 58.1738C26.1972 58.0272 26.2857 57.827 26.2924 57.616L27.1701 30.888L32.6496 21.7035L38.6881 30.8035L35.5809 48.048C35.5519 48.2112 35.5731 48.3792 35.6414 48.5302C35.71 48.6811 35.8226 48.8076 35.9645 48.8931C36.8437 49.3529 37.7728 49.7107 38.7334 49.9591V57.5901C38.7334 57.8057 38.8191 58.0122 38.9714 58.1646C39.1237 58.3171 39.3305 58.4026 39.5458 58.4026H42.7958C42.9837 58.4034 43.1661 58.3391 43.3119 58.2206C43.4577 58.1021 43.5578 57.9367 43.5954 57.7526L44.9538 50.8561H46.0264H47.1055L48.4639 57.7526C48.5015 57.9367 48.6016 58.1021 48.7474 58.2206C48.8932 58.3391 49.0756 58.4034 49.2635 58.4026H52.5135C52.7244 58.3958 52.9244 58.3074 53.0712 58.1557C53.2181 58.004 53.3002 57.8013 53.3 57.5901V49.9591C54.2593 49.713 55.1865 49.3553 56.0625 48.8931C56.2061 48.8091 56.3206 48.683 56.3904 48.5319C56.4602 48.3808 56.4818 48.212 56.4524 48.048L53.3455 30.8295L61.438 18.603C61.9466 17.8324 62.0357 16.8583 61.6749 16.0081C61.3144 15.1582 60.5521 14.5454 59.6443 14.3757C58.7366 14.206 57.8044 14.5022 57.1611 15.1645L49.2051 23.4H42.8286L34.8726 15.1645C34.2571 14.5305 33.3735 14.2328 32.5001 14.3649C31.6266 14.2339 30.7437 14.5316 30.1275 15.1645L22.1715 23.4H15.795L7.86502 15.197C7.22602 14.5231 6.29375 14.2105 5.37758 14.3631C4.4614 14.5156 3.68086 15.1134 3.29471 15.9582C2.90856 16.8029 2.96738 17.7844 3.45149 18.5771L10.7965 30.888ZM42.1135 56.7775H40.3587L40.3584 50.349C41.332 50.539 42.3148 50.6757 43.3031 50.7585L42.1135 56.7775ZM51.6751 56.7775H49.9202L48.75 50.7585C49.7382 50.6758 50.7212 50.5391 51.6945 50.3491L51.6751 56.7775ZM58.3246 16.2955C58.5886 16.0247 58.9708 15.9041 59.3425 15.9737C59.7143 16.0435 60.0266 16.2945 60.1747 16.6426C60.3228 16.9908 60.287 17.3899 60.0795 17.706L52.65 28.9835L50.5503 24.3491L58.3246 16.2955ZM43.0105 24.9925H49.023L51.7075 30.901L54.7429 47.7295L54.7432 47.7297C53.9512 48.0723 53.1315 48.3463 52.2925 48.5488C51.8505 48.6529 51.3825 48.7502 50.9145 48.8349L50.9147 48.8347C49.8572 49.0223 48.7891 49.144 47.7168 49.1988C46.6376 49.2508 45.3768 49.2508 44.3237 49.1988C43.8817 49.1988 43.4463 49.1404 43.0237 49.0947C41.9289 48.9883 40.8431 48.8059 39.7737 48.5488C38.9348 48.3463 38.1151 48.0723 37.3231 47.7297L40.3001 30.9012L43.0105 24.9925ZM32.201 16.1915C32.3991 16.0352 32.6441 15.9503 32.8965 15.951C33.2027 15.9518 33.4956 16.076 33.709 16.2954L41.5091 24.3489L39.4094 28.9834L31.9539 17.7059C31.7972 17.4687 31.7354 17.1811 31.7813 16.9004C31.827 16.6198 31.9768 16.3665 32.2009 16.1915H32.201ZM5.13505 16.2499C5.36335 16.0707 5.65005 15.9829 5.93953 16.0032C6.22899 16.0237 6.50064 16.1511 6.70144 16.3604L14.8654 24.8104H14.8657C15.0199 24.9674 15.2304 25.0565 15.4505 25.0575H22.516C22.736 25.0565 22.9468 24.9674 23.101 24.8104L30.1795 17.4459C30.2278 17.8593 30.3725 18.2556 30.6021 18.603L31.6551 20.202L25.6686 30.238C25.5978 30.3563 25.5576 30.4905 25.5516 30.6282L24.7002 56.7777H22.8867L19.7863 41.0282C19.7406 40.7764 19.5791 40.5608 19.3502 40.4463C19.1215 40.3319 18.8521 40.3319 18.6232 40.4463C18.3942 40.5608 18.2328 40.7764 18.1873 41.0282L15.0801 56.7777H13.2992L12.4152 30.6282C12.4095 30.4905 12.3693 30.3563 12.2982 30.238L4.84919 17.745C4.71081 17.5026 4.66341 17.2188 4.71589 16.9446C4.76837 16.6704 4.91711 16.4241 5.13526 16.25L5.13505 16.2499Z" fill="#374E76"/>
<path d="M33.6246 13.3251C35.0881 14.1646 36.7296 14.6458 38.4149 14.7292C38.6737 14.7277 38.9321 14.7103 39.1885 14.6771V14.9177V14.9175C39.0448 16.8171 39.6993 18.6905 40.9944 20.0874C42.2898 21.4843 44.1086 22.2784 46.0135 22.2784C47.9184 22.2784 49.7372 21.4843 51.0324 20.0874C52.3277 18.6905 52.9822 16.8171 52.8385 14.9175V14.6769V14.6771C53.0949 14.7103 53.3533 14.7277 53.6121 14.7292C55.2971 14.6458 56.9389 14.1646 58.4024 13.3251C58.5859 13.2233 58.7266 13.0591 58.7994 12.8623C58.8722 12.6655 58.872 12.4493 58.799 12.2525C58.7334 12.0671 58.5952 11.9167 58.416 11.8357C58.2368 11.7546 58.0324 11.7504 57.85 11.8236C57.5965 11.8236 56.758 11.4337 56.0625 9.41211C55.7578 8.30148 54.9874 7.37707 53.95 6.87706C53.0103 6.50551 51.9626 6.51715 51.0316 6.90943C50.1818 7.29791 49.4927 7.96844 49.0816 8.80759C47.1557 7.82793 44.8777 7.82793 42.9521 8.80759C42.5409 7.96844 41.8518 7.29791 41.0021 6.90943C40.0732 6.51757 39.0275 6.50593 38.0899 6.87706C37.051 7.37492 36.2798 8.30018 35.9774 9.41211C35.2819 11.4271 34.4823 11.8431 34.242 11.8302V11.83C33.8584 11.6954 33.4363 11.8837 33.2799 12.2591C33.2016 12.4486 33.1931 12.66 33.2562 12.8553C33.3193 13.0506 33.4498 13.2171 33.6246 13.3251ZM51.7206 8.39166C52.2411 8.18938 52.8185 8.18938 53.339 8.39166C53.946 8.71857 54.3855 9.28817 54.548 9.95805C54.8474 10.955 55.3698 11.8708 56.0755 12.6361C54.9707 13.1079 53.7475 13.2282 52.5719 12.9806C52.1905 11.7155 51.4524 10.5871 50.4466 9.73058C50.6831 9.13685 51.1393 8.65746 51.7206 8.39166ZM46.0136 9.69166C47.3927 9.69166 48.7153 10.2395 49.6906 11.2147C50.6658 12.1899 51.2136 13.5125 51.2136 14.8917C51.2136 16.2706 50.6658 17.5932 49.6906 18.5684C48.7153 19.5437 47.3927 20.0917 46.0136 20.0917C44.6344 20.0917 43.3118 19.5437 42.3366 18.5684C41.3613 17.5932 40.8136 16.2706 40.8136 14.8917C40.8152 13.5136 41.3639 12.1926 42.3389 11.2189C43.3139 10.245 44.6354 9.698 46.0136 9.698V9.69166ZM37.4791 9.93224V9.93203C37.646 9.26236 38.0872 8.69383 38.6944 8.36564C39.2126 8.16251 39.7883 8.16251 40.3066 8.36564C40.8905 8.61594 41.356 9.08145 41.6066 9.66564C40.6005 10.5221 39.8627 11.6506 39.4809 12.9156C38.3056 13.1632 37.0822 13.0428 35.9774 12.571C36.6681 11.8164 37.1812 10.917 37.4791 9.93856L37.4791 9.93224Z" fill="#374E76"/>
</svg>
