<svg width="75" height="75" viewBox="0 0 75 75" fill="none" xmlns="http://www.w3.org/2000/svg">
<path d="M61.2 37.5C61.2 37.9143 61.5356 38.25 61.95 38.25H63.6748C64.0891 38.25 64.4248 37.9143 64.4248 37.5C64.4248 37.0857 64.0891 36.75 63.6748 36.75H61.95C61.5356 36.75 61.2 37.0857 61.2 37.5Z" fill="#374E76"/>
<path d="M53.025 22.665V20.5051H53.3333C54.5899 20.5051 55.6122 19.3771 55.6122 17.9909V15.6391C55.6122 14.2531 54.5897 13.1249 53.3333 13.1249L45.179 13.1251C43.9224 13.1251 42.9001 14.2531 42.9001 15.6393V17.9911C42.9001 19.3771 43.9226 20.5053 45.179 20.5053H45.4873V22.841C38.2504 24.4943 32.7029 30.3185 31.8161 37.4929L21.5773 24.3422V20.3117C21.5773 17.5901 19.6049 15.3755 17.1801 15.3755H11.7099C9.28512 15.3755 7.31274 17.5899 7.31274 20.3117V60.0786C7.31274 60.4929 7.64844 60.8286 8.06274 60.8286H20.8271C21.2414 60.8286 21.5771 60.4929 21.5771 60.0786V47.3355L33.9327 61.6155C34.0751 61.7803 34.2821 61.8748 34.4999 61.8748H54.5624C54.9767 61.8748 55.3124 61.5391 55.3124 61.1248V55.7527C62.6236 53.4639 67.6874 46.8652 67.6874 39.4952C67.6874 31.1352 61.3605 24.159 53.0249 22.6646L53.025 22.665ZM20.0769 59.3288H8.81248V54.3754H20.0769V59.3288ZM20.0769 52.8756H8.81248V46.8756H20.0769V52.8756ZM20.0769 45.3756H8.81248V39.3756H20.0769V45.3756ZM20.0769 37.8756H8.81248V31.8756H20.0769V37.8756ZM20.0769 30.3756H8.81248V24.3756H20.0769V30.3756ZM20.0769 22.8756H8.81248V20.3119C8.81248 18.4171 10.1123 16.8756 11.7097 16.8756H17.1801C18.7775 16.8756 20.0773 18.4171 20.0773 20.3119L20.0769 22.8756ZM45.1787 19.0055C44.7493 19.0055 44.3999 18.5507 44.3999 17.9913V15.6395C44.3999 15.0802 44.7493 14.6253 45.1787 14.6253H53.3331C53.7626 14.6253 54.1119 15.0801 54.1119 15.6395V17.9913C54.1119 18.5506 53.7626 19.0055 53.3331 19.0055H45.1787ZM51.525 20.5055V22.3656H46.9872V20.5055H51.525ZM53.8124 55.208V60.3755H34.8424L21.5767 45.0436V26.7843L34.8267 43.8024L41.2242 51.8424C41.3668 52.0211 41.5829 52.1256 41.8114 52.1256H51.5614C52.8021 52.1256 53.8114 53.1348 53.8114 54.3756L53.8124 55.208ZM55.308 54.1911C55.3029 54.0854 55.2762 53.9865 55.2626 53.8833C55.2474 53.7702 55.2379 53.6562 55.213 53.5466C55.1835 53.4172 55.1386 53.2951 55.0963 53.1711C55.0604 53.0666 55.0309 52.9602 54.9862 52.8601C54.933 52.7402 54.8649 52.6301 54.7999 52.5173C54.746 52.4238 54.6984 52.3271 54.6368 52.239C54.5616 52.1311 54.4725 52.0354 54.3868 51.936C54.318 51.8564 54.2555 51.7717 54.18 51.6982C54.0836 51.604 53.975 51.5249 53.869 51.4414C53.7889 51.3781 53.715 51.3083 53.6295 51.2517C53.5114 51.1733 53.382 51.113 53.2552 51.0483C53.1696 51.0046 53.0897 50.9519 53.0004 50.9145C52.8541 50.8535 52.6979 50.8144 52.5431 50.7722C52.4633 50.7505 52.3881 50.7175 52.3063 50.7009C52.0655 50.6521 51.817 50.6255 51.5624 50.6255H42.1743L40.8811 49.0002C41.2522 48.883 41.4802 48.5044 41.3884 48.1196C41.293 47.716 40.8855 47.4663 40.4853 47.5637L40.1389 47.6462C40.0476 47.6679 39.9668 47.7097 39.8935 47.7595L36.0066 42.8747L33.1892 39.2559C33.325 30.7471 40.6742 23.8652 49.6874 23.8652C58.7855 23.8652 66.1874 30.8771 66.1874 39.4952C66.1874 46.0634 61.7614 51.9759 55.308 54.1909V54.1911Z" fill="#374E76"/>
<path d="M49.6875 28.905C50.1018 28.905 50.4375 28.5693 50.4375 28.155V26.4749C50.4375 26.0605 50.1018 25.7249 49.6875 25.7249C49.2732 25.7249 48.9375 26.0605 48.9375 26.4749V28.155C48.9375 28.5693 49.2732 28.905 49.6875 28.905Z" fill="#374E76"/>
<path d="M41.1731 31.2062L39.649 29.7677C39.3474 29.4838 38.8728 29.4972 38.5884 29.7987C38.3042 30.0997 38.3181 30.5743 38.6194 30.8588L40.1436 32.2973C40.2886 32.4338 40.4734 32.5016 40.6585 32.5016C40.8577 32.5016 41.0564 32.4225 41.2041 32.2663C41.4886 31.9652 41.4747 31.4906 41.1731 31.2062Z" fill="#374E76"/>
<path d="M36.75 39.165H35.0251C34.6108 39.165 34.2751 39.5007 34.2751 39.915C34.2751 40.3293 34.6108 40.665 35.0251 40.665H36.75C37.1643 40.665 37.5 40.3293 37.5 39.915C37.5 39.501 37.1643 39.165 36.75 39.165Z" fill="#374E76"/>
<path d="M58.7075 47.7469C58.4072 47.4635 57.9319 47.4767 57.6475 47.7779C57.3633 48.079 57.3772 48.5541 57.6785 48.838L59.2029 50.2762C59.3477 50.4127 59.5325 50.4806 59.7176 50.4806C59.9168 50.4806 60.1155 50.4015 60.2632 50.2452C60.5474 49.9442 60.5335 49.4691 60.2322 49.1852L58.7075 47.7469Z" fill="#374E76"/>
<path d="M59.6444 29.5776L58.0872 30.9848C57.7799 31.2624 57.7559 31.7365 58.0338 32.0439C58.1817 32.2079 58.3858 32.2909 58.5904 32.2909C58.7694 32.2909 58.9493 32.227 59.0928 32.0971L60.65 30.6898C60.9573 30.4123 60.9813 29.9382 60.7034 29.6308C60.4261 29.3232 59.9517 29.2988 59.6444 29.5776Z" fill="#374E76"/>
<path d="M50.1187 30.765C45.1868 30.765 41.1743 34.493 41.1743 39.075C41.1743 43.657 45.1865 47.385 50.1187 47.385C55.0501 47.385 59.0624 43.657 59.0624 39.075C59.0624 34.493 55.0503 30.765 50.1187 30.765ZM50.1187 45.8856C46.0142 45.8856 42.6743 42.8307 42.6743 39.0756C42.6743 35.3206 46.0137 32.2656 50.1187 32.2656C54.2232 32.2656 57.5624 35.3203 57.5624 39.0756C57.5624 42.8308 54.2233 45.8856 50.1187 45.8856Z" fill="#374E76"/>
</svg>
