<svg width="720" height="345" viewBox="0 0 720 345" fill="none" xmlns="http://www.w3.org/2000/svg">
<g clip-path="url(#clip0_17_152)">
<mask id="mask0_17_152" style="mask-type:luminance" maskUnits="userSpaceOnUse" x="0" y="0" width="720" height="345">
<path d="M720 0H0V345H720V0Z" fill="white"/>
</mask>
<g mask="url(#mask0_17_152)">
<path d="M0 20.9464C36 35.8553 108 94.7518 180 95.4911C252 96.2303 288 23.5339 360 24.6428C432 25.7518 468 94.875 540 101.036C612 107.196 684 64.5643 720 55.4464V345H0V20.9464Z" fill="#3372D9"/>
<path d="M0 148.473C48 163.259 144 222.895 240 222.402C336 221.909 384 151.43 480 146.009C576 140.588 672 185.438 720 195.295V345H0V148.473Z" fill="#235BB5"/>
<path d="M0 311.732C28.8 304.339 86.4 272.673 144 274.768C201.6 276.862 230.4 328.612 288 322.205C345.6 315.798 372.4 255.782 430 258C487.6 260.218 518.4 332.062 576 333.295C633.6 334.527 691.2 265.773 720 248.893V345H0V311.732Z" fill="#144799"/>
</g>
</g>
<defs>
<clipPath id="clip0_17_152">
<rect width="720" height="345" fill="white"/>
</clipPath>
</defs>
</svg>
